<svg width="200" height="200" viewBox="0 0 200 200" xmlns="http://www.w3.org/2000/svg">
  <!-- Background circle -->
  <circle cx="100" cy="100" r="95" fill="#f97316" />
  
  <!-- Building silhouette -->
  <g fill="#ffffff">
    <!-- Main building -->
    <rect x="60" y="70" width="80" height="80" />
    
    <!-- Building details - windows -->
    <rect x="70" y="80" width="15" height="15" fill="#f97316" />
    <rect x="92" y="80" width="15" height="15" fill="#f97316" />
    <rect x="114" y="80" width="15" height="15" fill="#f97316" />
    
    <rect x="70" y="102" width="15" height="15" fill="#f97316" />
    <rect x="92" y="102" width="15" height="15" fill="#f97316" />
    <rect x="114" y="102" width="15" height="15" fill="#f97316" />
    
    <rect x="70" y="124" width="15" height="15" fill="#f97316" />
    <rect x="92" y="124" width="15" height="15" fill="#f97316" />
    <rect x="114" y="124" width="15" height="15" fill="#f97316" />
    
    <!-- Door -->
    <rect x="90" y="135" width="20" height="15" fill="#f97316" />
    
    <!-- Left building -->
    <rect x="45" y="90" width="15" height="60" />
    <rect x="48" y="95" width="9" height="8" fill="#f97316" />
    <rect x="48" y="108" width="9" height="8" fill="#f97316" />
    <rect x="48" y="121" width="9" height="8" fill="#f97316" />
    
    <!-- Right building -->
    <rect x="140" y="85" width="15" height="65" />
    <rect x="143" y="90" width="9" height="8" fill="#f97316" />
    <rect x="143" y="103" width="9" height="8" fill="#f97316" />
    <rect x="143" y="116" width="9" height="8" fill="#f97316" />
    <rect x="143" y="129" width="9" height="8" fill="#f97316" />
  </g>
  
  <!-- Company name text -->
  <text x="100" y="175" font-family="Arial, sans-serif" font-size="14" font-weight="bold" text-anchor="middle" fill="#ffffff">CV PATUPA</text>
  <text x="100" y="190" font-family="Arial, sans-serif" font-size="10" text-anchor="middle" fill="#ffffff">PAPUA</text>
</svg>